<svg width="73" height="72" viewBox="0 0 73 72" fill="none" xmlns="http://www.w3.org/2000/svg">
<circle cx="36.5" cy="36" r="36" fill="#1E4695" fill-opacity="0.4"/>
<path d="M25.8846 47.5086C24.3564 46.0327 23.1375 44.2671 22.299 42.3151C21.4604 40.363 21.0191 38.2635 21.0006 36.139C20.9821 34.0146 21.387 31.9077 22.1915 29.9413C22.996 27.975 24.184 26.1886 25.6863 24.6863C27.1886 23.184 28.975 21.996 30.9413 21.1915C32.9077 20.387 35.0146 19.9821 37.139 20.0006C39.2635 20.0191 41.363 20.4604 43.3151 21.299C45.2671 22.1375 47.0327 23.3564 48.5086 24.8846C51.4231 27.9022 53.0359 31.9439 52.9994 36.139C52.9629 40.3342 51.2802 44.3472 48.3137 47.3137C45.3472 50.2802 41.3342 51.9629 37.139 51.9994C32.9439 52.0359 28.9022 50.4231 25.8846 47.5086ZM46.2526 45.2526C48.6544 42.8508 50.0037 39.5933 50.0037 36.1966C50.0037 32.8 48.6544 29.5424 46.2526 27.1406C43.8508 24.7388 40.5933 23.3895 37.1966 23.3895C33.8 23.3895 30.5424 24.7388 28.1406 27.1406C25.7388 29.5424 24.3895 32.8 24.3895 36.1966C24.3895 39.5933 25.7388 42.8508 28.1406 45.2526C30.5424 47.6544 33.8 49.0037 37.1966 49.0037C40.5933 49.0037 43.8508 47.6544 46.2526 45.2526ZM35.5966 28.1966H38.7966V37.7966H35.5966V28.1966ZM35.5966 40.9966H38.7966V44.1966H35.5966V40.9966Z" fill="#20599E"/>
</svg>
