<svg width="20" height="20" viewBox="0 0 20 20" fill="none" xmlns="http://www.w3.org/2000/svg">
<path fill-rule="evenodd" clip-rule="evenodd" d="M6.6665 4.16602C6.6665 3.50297 6.9299 2.86709 7.39874 2.39825C7.86758 1.92941 8.50346 1.66602 9.1665 1.66602H15.8332C16.4962 1.66602 17.1321 1.92941 17.6009 2.39825C18.0698 2.86709 18.3332 3.50297 18.3332 4.16602V15.8327C18.3332 16.4957 18.0698 17.1316 17.6009 17.6004C17.1321 18.0693 16.4962 18.3327 15.8332 18.3327H9.1665C8.50346 18.3327 7.86758 18.0693 7.39874 17.6004C6.9299 17.1316 6.6665 16.4957 6.6665 15.8327V4.16602ZM9.1665 3.33268C8.94549 3.33268 8.73353 3.42048 8.57725 3.57676C8.42097 3.73304 8.33317 3.945 8.33317 4.16602V15.8327C8.33317 16.0537 8.42097 16.2657 8.57725 16.4219C8.73353 16.5782 8.94549 16.666 9.1665 16.666H15.8332C16.0542 16.666 16.2661 16.5782 16.4224 16.4219C16.5787 16.2657 16.6665 16.0537 16.6665 15.8327V4.16602C16.6665 3.945 16.5787 3.73304 16.4224 3.57676C16.2661 3.42048 16.0542 3.33268 15.8332 3.33268H9.1665Z" fill="#202124"/>
<path fill-rule="evenodd" clip-rule="evenodd" d="M1.6665 9.16602C1.6665 8.50297 1.9299 7.86709 2.39874 7.39825C2.86758 6.92941 3.50346 6.66602 4.1665 6.66602H7.9165V8.33268H4.1665C3.94549 8.33268 3.73353 8.42048 3.57725 8.57676C3.42097 8.73304 3.33317 8.945 3.33317 9.16602V15.8327C3.33317 16.0537 3.42097 16.2657 3.57725 16.4219C3.73353 16.5782 3.94549 16.666 4.1665 16.666H12.0832V18.3327H4.1665C3.50346 18.3327 2.86758 18.0693 2.39874 17.6005C1.9299 17.1316 1.6665 16.4957 1.6665 15.8327V9.16602Z" fill="#202124"/>
<path fill-rule="evenodd" clip-rule="evenodd" d="M10 14.1667C10 13.7246 10.1756 13.3007 10.4882 12.9882C10.8007 12.6756 11.2246 12.5 11.6667 12.5H13.3333C13.7754 12.5 14.1993 12.6756 14.5118 12.9882C14.8244 13.3007 15 13.7246 15 14.1667V16.6667H13.3333V14.1667H11.6667V16.6667H10V14.1667Z" fill="#202124"/>
<path d="M9.99984 4.99935C9.99984 4.77834 10.0876 4.56637 10.2439 4.41009C10.4002 4.25381 10.6122 4.16602 10.8332 4.16602C11.0542 4.16602 11.2661 4.25381 11.4224 4.41009C11.5787 4.56637 11.6665 4.77834 11.6665 4.99935V5.83268C11.6665 6.0537 11.5787 6.26566 11.4224 6.42194C11.2661 6.57822 11.0542 6.66602 10.8332 6.66602C10.6122 6.66602 10.4002 6.57822 10.2439 6.42194C10.0876 6.26566 9.99984 6.0537 9.99984 5.83268V4.99935ZM9.99984 9.16602C9.99984 8.945 10.0876 8.73304 10.2439 8.57676C10.4002 8.42048 10.6122 8.33268 10.8332 8.33268C11.0542 8.33268 11.2661 8.42048 11.4224 8.57676C11.5787 8.73304 11.6665 8.945 11.6665 9.16602V9.99935C11.6665 10.2204 11.5787 10.4323 11.4224 10.5886C11.2661 10.7449 11.0542 10.8327 10.8332 10.8327C10.6122 10.8327 10.4002 10.7449 10.2439 10.5886C10.0876 10.4323 9.99984 10.2204 9.99984 9.99935V9.16602ZM4.1665 12.4993C4.1665 12.2783 4.2543 12.0664 4.41058 11.9101C4.56686 11.7538 4.77882 11.666 4.99984 11.666C5.22085 11.666 5.43281 11.7538 5.58909 11.9101C5.74537 12.0664 5.83317 12.2783 5.83317 12.4993V13.3327C5.83317 13.5537 5.74537 13.7657 5.58909 13.9219C5.43281 14.0782 5.22085 14.166 4.99984 14.166C4.77882 14.166 4.56686 14.0782 4.41058 13.9219C4.2543 13.7657 4.1665 13.5537 4.1665 13.3327V12.4993ZM13.3332 4.99935C13.3332 4.77834 13.421 4.56637 13.5772 4.41009C13.7335 4.25381 13.9455 4.16602 14.1665 4.16602C14.3875 4.16602 14.5995 4.25381 14.7558 4.41009C14.912 4.56637 14.9998 4.77834 14.9998 4.99935V5.83268C14.9998 6.0537 14.912 6.26566 14.7558 6.42194C14.5995 6.57822 14.3875 6.66602 14.1665 6.66602C13.9455 6.66602 13.7335 6.57822 13.5772 6.42194C13.421 6.26566 13.3332 6.0537 13.3332 5.83268V4.99935ZM13.3332 9.16602C13.3332 8.945 13.421 8.73304 13.5772 8.57676C13.7335 8.42048 13.9455 8.33268 14.1665 8.33268C14.3875 8.33268 14.5995 8.42048 14.7558 8.57676C14.912 8.73304 14.9998 8.945 14.9998 9.16602V9.99935C14.9998 10.2204 14.912 10.4323 14.7558 10.5886C14.5995 10.7449 14.3875 10.8327 14.1665 10.8327C13.9455 10.8327 13.7335 10.7449 13.5772 10.5886C13.421 10.4323 13.3332 10.2204 13.3332 9.99935V9.16602Z" fill="#202124"/>
</svg>
