<svg width="62" height="63" viewBox="0 0 62 63" fill="none" xmlns="http://www.w3.org/2000/svg">
<path d="M15.4993 18.582H28.416C29.1012 18.582 29.7582 18.8542 30.2427 19.3387C30.7272 19.8231 30.9993 20.4802 30.9993 21.1654C30.9993 21.8505 30.7272 22.5076 30.2427 22.9921C29.7582 23.4765 29.1012 23.7487 28.416 23.7487H15.4993C14.8142 23.7487 14.1571 23.4765 13.6727 22.9921C13.1882 22.5076 12.916 21.8505 12.916 21.1654C12.916 20.4802 13.1882 19.8231 13.6727 19.3387C14.1571 18.8542 14.8142 18.582 15.4993 18.582ZM33.5827 39.2487H46.4994C47.1845 39.2487 47.8416 39.5209 48.326 40.0053C48.8105 40.4898 49.0827 41.1469 49.0827 41.832C49.0827 42.5172 48.8105 43.1743 48.326 43.6587C47.8416 44.1432 47.1845 44.4154 46.4994 44.4154H33.5827C32.8975 44.4154 32.2405 44.1432 31.756 43.6587C31.2715 43.1743 30.9993 42.5172 30.9993 41.832C30.9993 41.1469 31.2715 40.4898 31.756 40.0053C32.2405 39.5209 32.8975 39.2487 33.5827 39.2487ZM15.4993 28.9154H46.4994C47.1845 28.9154 47.8416 29.1875 48.326 29.672C48.8105 30.1565 49.0827 30.8136 49.0827 31.4987C49.0827 32.1838 48.8105 32.8409 48.326 33.3254C47.8416 33.8099 47.1845 34.082 46.4994 34.082H15.4993C14.8142 34.082 14.1571 33.8099 13.6727 33.3254C13.1882 32.8409 12.916 32.1838 12.916 31.4987C12.916 30.8136 13.1882 30.1565 13.6727 29.672C14.1571 29.1875 14.8142 28.9154 15.4993 28.9154Z" fill="#20599E"/>
</svg>
