<svg width="35" height="39" viewBox="0 0 35 39" fill="none" xmlns="http://www.w3.org/2000/svg">
<path d="M14.8128 31.8327C14.8128 32.5454 15.096 33.229 15.6 33.733C16.104 34.237 16.7876 34.5202 17.5003 34.5202C18.2131 34.5202 18.8967 34.237 19.4007 33.733C19.9047 33.229 20.1878 32.5454 20.1878 31.8327V20.1868H31.8337C32.5464 20.1868 33.23 19.9037 33.734 19.3997C34.238 18.8957 34.5212 18.2121 34.5212 17.4993C34.5212 16.7866 34.238 16.103 33.734 15.599C33.23 15.095 32.5464 14.8118 31.8337 14.8118H20.1878V3.16602C20.1878 2.45325 19.9047 1.76967 19.4007 1.26567C18.8967 0.761662 18.2131 0.478516 17.5003 0.478516C16.7876 0.478516 16.104 0.761662 15.6 1.26567C15.096 1.76967 14.8128 2.45325 14.8128 3.16602V14.8118H3.16699C2.45422 14.8118 1.77065 15.095 1.26664 15.599C0.762639 16.103 0.479492 16.7866 0.479492 17.4993C0.479492 18.2121 0.762639 18.8957 1.26664 19.3997C1.77065 19.9037 2.45422 20.1868 3.16699 20.1868H14.8128V31.8327Z" fill="#F4F4F4"/>
</svg>
