<svg width="68" height="68" viewBox="0 0 68 68" fill="none" xmlns="http://www.w3.org/2000/svg">
<path d="M31.3154 40.911H21.709C21.1406 40.911 20.6802 41.3713 20.6802 41.9398V56.8549C20.6802 57.4234 21.1406 57.8838 21.709 57.8838H31.3154C31.8839 57.8838 32.3436 57.4234 32.3436 56.8549V41.9391C32.3436 41.3707 31.8832 40.911 31.3154 40.911ZM46.2938 10.1172H36.6874C36.1189 10.1172 35.6586 10.5775 35.6586 11.146V56.8543C35.6586 57.4227 36.1189 57.8831 36.6874 57.8831H46.2938C46.8622 57.8831 47.3226 57.4227 47.3226 56.8543V11.146C47.3226 10.5775 46.8622 10.1172 46.2938 10.1172ZM61.349 24.0035H51.7426C51.1741 24.0035 50.7138 24.4638 50.7138 25.0323V56.8543C50.7138 57.4227 51.1741 57.8831 51.7426 57.8831H61.3483C61.9168 57.8831 62.3771 57.4227 62.3771 56.8543V25.0323C62.3771 24.4645 61.9168 24.0035 61.349 24.0035ZM16.2602 24.0035H6.65384C6.08536 24.0035 5.625 24.4638 5.625 25.0323V56.8543C5.625 57.4227 6.08536 57.8831 6.65384 57.8831H16.2602C16.8287 57.8831 17.289 57.4227 17.289 56.8543V25.0323C17.289 24.4645 16.8287 24.0035 16.2602 24.0035Z" fill="#F4F4F4"/>
</svg>
