<svg width="18" height="18" viewBox="0 0 18 18" fill="none" xmlns="http://www.w3.org/2000/svg">
<path d="M3 5.25V6.75H15V5.25C15 4.85218 14.842 4.47064 14.5607 4.18934C14.2794 3.90804 13.8978 3.75 13.5 3.75H4.5C4.10218 3.75 3.72064 3.90804 3.43934 4.18934C3.15804 4.47064 3 4.85218 3 5.25Z" fill="#202124"/>
<path d="M12 3.75H13.5C13.8978 3.75 14.2794 3.90804 14.5607 4.18934C14.842 4.47064 15 4.85218 15 5.25V6.75H3V5.25C3 4.85218 3.15804 4.47064 3.43934 4.18934C3.72064 3.90804 4.10218 3.75 4.5 3.75H6M12 3.75V2.25M12 3.75H6M6 3.75V2.25M3 7.125V14.25C3 14.6478 3.15804 15.0294 3.43934 15.3107C3.72064 15.592 4.10218 15.75 4.5 15.75H13.5C13.8978 15.75 14.2794 15.592 14.5607 15.3107C14.842 15.0294 15 14.6478 15 14.25V7.125" stroke="#202124" stroke-width="2" stroke-linecap="round" stroke-linejoin="round"/>
</svg>
