<svg width="16" height="15" viewBox="0 0 16 15" fill="none" xmlns="http://www.w3.org/2000/svg">
<g clip-path="url(#clip0_832_2152)">
<path d="M11.0004 10.0004L8.5004 7.50042M8.5004 7.50042L6.0004 10.0004M8.5004 7.50042V13.1254M13.7442 11.4942C14.3537 11.1618 14.8353 10.636 15.1128 9.99956C15.3903 9.36315 15.448 8.65244 15.2768 7.9796C15.1055 7.30676 14.7151 6.71011 14.1671 6.28382C13.6191 5.85753 12.9447 5.62588 12.2504 5.62542H11.4629C11.2737 4.89369 10.9211 4.21438 10.4316 3.63854C9.94211 3.0627 9.32843 2.60532 8.63671 2.3008C7.945 1.99627 7.19325 1.85252 6.43798 1.88034C5.6827 1.90817 4.94357 2.10685 4.27614 2.46146C3.60871 2.81606 3.03035 3.31736 2.58454 3.92766C2.13874 4.53796 1.83708 5.24138 1.70226 5.98504C1.56745 6.7287 1.60297 7.49325 1.80616 8.2212C2.00935 8.94916 2.37493 9.62158 2.8754 10.1879" stroke="#80868B" stroke-width="2" stroke-linecap="round" stroke-linejoin="round"/>
</g>
<defs>
<clipPath id="clip0_832_2152">
<rect width="16" height="15" fill="white"/>
</clipPath>
</defs>
</svg>
