<svg width="23" height="23" viewBox="0 0 23 23" fill="none" xmlns="http://www.w3.org/2000/svg">
<path d="M20.5144 5.8321L11.8894 1.99877C11.7668 1.94421 11.6341 1.91602 11.4998 1.91602C11.3656 1.91602 11.2329 1.94421 11.1103 1.99877L2.48528 5.8321C2.46612 5.84072 2.4527 5.8551 2.43353 5.86564C2.4067 5.87906 2.37795 5.88768 2.35303 5.90397C2.33195 5.91835 2.31566 5.93656 2.29553 5.95189C2.22579 6.0043 2.16439 6.06698 2.11345 6.13781C2.09364 6.16336 2.0748 6.18924 2.05691 6.21543C2.02788 6.26582 2.00351 6.31875 1.98408 6.37356C1.97545 6.39943 1.96203 6.42339 1.95437 6.44927C1.93015 6.5334 1.91757 6.62046 1.91699 6.70802V16.2913C1.91699 16.6708 2.13933 17.013 2.48624 17.1673L11.1112 21.0006C11.2358 21.0562 11.3681 21.083 11.5003 21.083C11.6337 21.0795 11.765 21.0482 11.8856 20.991L11.8894 21.0006L20.5144 17.1673C20.6839 17.092 20.8278 16.9692 20.9289 16.8137C21.0299 16.6582 21.0837 16.4768 21.0837 16.2913V6.70802C21.0837 6.5226 21.0299 6.34115 20.9289 6.18568C20.8278 6.0302 20.6839 5.90738 20.5144 5.8321ZM11.5003 3.92406L17.7659 6.70802L11.5003 9.49197L10.2468 8.93518L5.2357 6.70802L11.5003 3.92406ZM12.4587 18.6498V11.1643L19.167 8.18289V15.6694L12.4587 18.6498Z" fill="#202124"/>
</svg>
