<svg width="62" height="62" viewBox="0 0 62 62" fill="none" xmlns="http://www.w3.org/2000/svg">
<path d="M15.5003 18.084H28.417C29.1021 18.084 29.7592 18.3562 30.2437 18.8406C30.7282 19.3251 31.0003 19.9822 31.0003 20.6673C31.0003 21.3525 30.7282 22.0095 30.2437 22.494C29.7592 22.9785 29.1021 23.2507 28.417 23.2507H15.5003C14.8152 23.2507 14.1581 22.9785 13.6736 22.494C13.1892 22.0095 12.917 21.3525 12.917 20.6673C12.917 19.9822 13.1892 19.3251 13.6736 18.8406C14.1581 18.3562 14.8152 18.084 15.5003 18.084ZM33.5837 38.7507H46.5003C47.1855 38.7507 47.8426 39.0228 48.327 39.5073C48.8115 39.9918 49.0837 40.6488 49.0837 41.334C49.0837 42.0191 48.8115 42.6762 48.327 43.1607C47.8426 43.6451 47.1855 43.9173 46.5003 43.9173H33.5837C32.8985 43.9173 32.2414 43.6451 31.757 43.1607C31.2725 42.6762 31.0003 42.0191 31.0003 41.334C31.0003 40.6488 31.2725 39.9918 31.757 39.5073C32.2414 39.0228 32.8985 38.7507 33.5837 38.7507ZM15.5003 28.4173H46.5003C47.1855 28.4173 47.8426 28.6895 48.327 29.174C48.8115 29.6584 49.0837 30.3155 49.0837 31.0007C49.0837 31.6858 48.8115 32.3429 48.327 32.8273C47.8426 33.3118 47.1855 33.584 46.5003 33.584H15.5003C14.8152 33.584 14.1581 33.3118 13.6736 32.8273C13.1892 32.3429 12.917 31.6858 12.917 31.0007C12.917 30.3155 13.1892 29.6584 13.6736 29.174C14.1581 28.6895 14.8152 28.4173 15.5003 28.4173Z" fill="#F4F4F4"/>
</svg>
