<svg width="20" height="25" viewBox="0 0 20 25" fill="none" xmlns="http://www.w3.org/2000/svg">
<path d="M5.53237 1C6.05036 1 8.1223 6.95683 8.1223 7.6187C8.1223 8.94245 6.56835 10.2662 6.05036 11.5899C5.53237 12.9137 6.56835 14.2374 7.60432 15.5612C8.00834 16.0774 9.67626 18.2086 10.7122 17.5468C11.7482 16.8849 12.7842 14.8993 13.8201 14.8993C14.3381 14.8993 19 17.5468 19 18.2086C19 20.8561 17.446 22.8417 15.8921 23.5036C14.3381 24.1655 13.3022 24.1655 11.2302 23.5036C9.15827 22.8417 7.60432 22.1799 5.01439 18.8705C2.42446 15.5612 1.90647 13.5755 1.38849 10.9281C0.870504 8.28058 0.870504 6.95683 1.38849 4.97122C1.90647 2.98561 3.46043 1 5.53237 1Z" stroke="#202124" stroke-width="2" stroke-linecap="round" stroke-linejoin="round"/>
</svg>
