<svg width="29" height="29" viewBox="0 0 29 29" fill="none" xmlns="http://www.w3.org/2000/svg">
<path fill-rule="evenodd" clip-rule="evenodd" d="M2.41699 14.5013C2.41699 7.82768 7.8267 2.41797 14.5003 2.41797C21.1739 2.41797 26.5837 7.82768 26.5837 14.5013C26.5837 21.1749 21.1739 26.5846 14.5003 26.5846C7.8267 26.5846 2.41699 21.1749 2.41699 14.5013ZM14.5003 4.83464C11.9366 4.83464 9.47781 5.85308 7.66496 7.66594C5.85211 9.47879 4.83366 11.9375 4.83366 14.5013C4.83366 17.0651 5.85211 19.5238 7.66496 21.3367C9.47781 23.1495 11.9366 24.168 14.5003 24.168C17.0641 24.168 19.5228 23.1495 21.3357 21.3367C23.1485 19.5238 24.167 17.0651 24.167 14.5013C24.167 11.9375 23.1485 9.47879 21.3357 7.66594C19.5228 5.85308 17.0641 4.83464 14.5003 4.83464Z" fill="#202124"/>
<path fill-rule="evenodd" clip-rule="evenodd" d="M15.7083 8.45833C15.7083 8.13786 15.581 7.83052 15.3544 7.60391C15.1278 7.37731 14.8205 7.25 14.5 7.25C14.1795 7.25 13.8722 7.37731 13.6456 7.60391C13.419 7.83052 13.2917 8.13786 13.2917 8.45833V13.2917H8.45833C8.13786 13.2917 7.83052 13.419 7.60391 13.6456C7.37731 13.8722 7.25 14.1795 7.25 14.5C7.25 14.8205 7.37731 15.1278 7.60391 15.3544C7.83052 15.581 8.13786 15.7083 8.45833 15.7083H13.2917V20.5417C13.2917 20.8621 13.419 21.1695 13.6456 21.3961C13.8722 21.6227 14.1795 21.75 14.5 21.75C14.8205 21.75 15.1278 21.6227 15.3544 21.3961C15.581 21.1695 15.7083 20.8621 15.7083 20.5417V15.7083H20.5417C20.8621 15.7083 21.1695 15.581 21.3961 15.3544C21.6227 15.1278 21.75 14.8205 21.75 14.5C21.75 14.1795 21.6227 13.8722 21.3961 13.6456C21.1695 13.419 20.8621 13.2917 20.5417 13.2917H15.7083V8.45833Z" fill="#202124"/>
</svg>
