<svg width="100" height="100" viewBox="0 0 100 100" fill="none" xmlns="http://www.w3.org/2000/svg">
<path d="M50.004 23.8281C67.2091 23.8281 81.1564 37.7754 81.1564 54.9805V77.7344C81.1564 78.5632 80.8271 79.358 80.2411 79.9441C79.655 80.5301 78.8602 80.8594 78.0314 80.8594H21.9767C21.1479 80.8594 20.353 80.5301 19.767 79.9441C19.1809 79.358 18.8517 78.5632 18.8517 77.7344V54.9805C18.8517 37.7754 32.799 23.8281 50.004 23.8281ZM47.2697 6.64062H52.7384C52.9456 6.64062 53.1443 6.72294 53.2908 6.86945C53.4374 7.01596 53.5197 7.21467 53.5197 7.42188V16.7969C53.5197 17.0041 53.4374 17.2028 53.2908 17.3493C53.1443 17.4958 52.9456 17.5781 52.7384 17.5781H47.2697C47.0625 17.5781 46.8637 17.4958 46.7172 17.3493C46.5707 17.2028 46.4884 17.0041 46.4884 16.7969V7.42188C46.4884 7.21467 46.5707 7.01596 46.7172 6.86945C46.8637 6.72294 47.0625 6.64062 47.2697 6.64062ZM17.3136 18.7168C17.3862 18.6442 17.4723 18.5865 17.5672 18.5472C17.662 18.5079 17.7637 18.4877 17.8663 18.4877C17.969 18.4877 18.0707 18.5079 18.1655 18.5472C18.2604 18.5865 18.3465 18.6442 18.4191 18.7168L25.048 25.3457C25.1944 25.4922 25.2766 25.6908 25.2766 25.8979C25.2766 26.1051 25.1944 26.3037 25.048 26.4502L21.1808 30.3174C21.0343 30.4638 20.8357 30.546 20.6285 30.546C20.4214 30.546 20.2228 30.4638 20.0763 30.3174L13.4474 23.6885C13.301 23.542 13.2188 23.3433 13.2188 23.1362C13.2188 22.9291 13.301 22.7305 13.4474 22.584L17.3146 18.7168H17.3136ZM82.7042 18.7168L86.5714 22.584C86.7175 22.7304 86.7996 22.9289 86.7996 23.1357C86.7996 23.3426 86.7175 23.541 86.5714 23.6875L79.9425 30.3184C79.87 30.391 79.7838 30.4486 79.6889 30.4879C79.5941 30.5273 79.4924 30.5475 79.3898 30.5475C79.2871 30.5475 79.1854 30.5273 79.0906 30.4879C78.9958 30.4486 78.9096 30.391 78.837 30.3184L74.9699 26.4512C74.8972 26.3786 74.8396 26.2925 74.8003 26.1976C74.761 26.1028 74.7407 26.0011 74.7407 25.8984C74.7407 25.7958 74.761 25.6941 74.8003 25.5993C74.8396 25.5044 74.8972 25.4183 74.9699 25.3457L81.5997 18.7168C81.7462 18.5704 81.9449 18.4882 82.152 18.4882C82.3591 18.4882 82.5577 18.5704 82.7042 18.7168ZM18.754 87.1094H81.254C82.0828 87.1094 82.8777 87.4386 83.4637 88.0247C84.0498 88.6107 84.379 89.4056 84.379 90.2344V92.5781C84.379 92.7853 84.2967 92.984 84.1502 93.1306C84.0037 93.2771 83.805 93.3594 83.5978 93.3594H16.4103C16.2031 93.3594 16.0044 93.2771 15.8579 93.1306C15.7113 92.984 15.629 92.7853 15.629 92.5781V90.2344C15.629 89.4056 15.9583 88.6107 16.5443 88.0247C17.1304 87.4386 17.9252 87.1094 18.754 87.1094ZM33.2072 56.1523V80.8594H39.4572V56.1523H33.2072Z" fill="#F09C0A"/>
</svg>
