<svg width="73" height="72" viewBox="0 0 73 72" fill="none" xmlns="http://www.w3.org/2000/svg">
<circle cx="36.5" cy="36" r="36" fill="#1E4695" fill-opacity="0.4"/>
<path d="M32 36L35 39L41.75 32.25M29.5007 23.728C30.7064 23.6318 31.8511 23.1577 32.7717 22.3731C34.9201 20.5423 38.0799 20.5423 40.2283 22.3731C41.1489 23.1577 42.2936 23.6318 43.4993 23.728C46.3131 23.9526 48.5474 26.1869 48.772 29.0007C48.8682 30.2064 49.3423 31.3511 50.1269 32.2717C51.9577 34.4201 51.9577 37.5799 50.1269 39.7283C49.3423 40.6489 48.8682 41.7936 48.772 42.9993C48.5474 45.8131 46.3131 48.0474 43.4993 48.272C42.2936 48.3682 41.1489 48.8423 40.2283 49.6269C38.0799 51.4577 34.9201 51.4577 32.7717 49.6269C31.8511 48.8423 30.7064 48.3682 29.5007 48.272C26.6869 48.0474 24.4526 45.8131 24.228 42.9993C24.1318 41.7936 23.6577 40.6489 22.8731 39.7283C21.0423 37.5799 21.0423 34.4201 22.8731 32.2717C23.6577 31.3511 24.1318 30.2064 24.228 29.0007C24.4526 26.1869 26.6869 23.9526 29.5007 23.728Z" stroke="#20599E" stroke-width="2" stroke-linecap="round" stroke-linejoin="round"/>
</svg>
