<svg width="24" height="24" viewBox="0 0 24 24" fill="none" xmlns="http://www.w3.org/2000/svg">
<path d="M21.406 6.08635L12.406 2.08635C12.278 2.02942 12.1396 2 11.9995 2C11.8594 2 11.721 2.02942 11.593 2.08635L2.593 6.08635C2.573 6.09535 2.559 6.11035 2.539 6.12135C2.511 6.13535 2.481 6.14435 2.455 6.16135C2.433 6.17635 2.416 6.19535 2.395 6.21135C2.32222 6.26603 2.25816 6.33145 2.205 6.40535C2.18433 6.43202 2.16467 6.45902 2.146 6.48635C2.11571 6.53893 2.09027 6.59416 2.07 6.65135C2.061 6.67835 2.047 6.70335 2.039 6.73035C2.01373 6.81814 2.00061 6.90899 2 7.00035V17.0003C2 17.3963 2.232 17.7533 2.594 17.9143L11.594 21.9143C11.724 21.9723 11.862 22.0003 12 22.0003C12.1392 21.9967 12.2761 21.964 12.402 21.9043L12.406 21.9143L21.406 17.9143C21.5828 17.8358 21.7331 17.7076 21.8385 17.5454C21.9439 17.3832 22 17.1938 22 17.0003V7.00035C22 6.80687 21.9439 6.61753 21.8385 6.4553C21.7331 6.29307 21.5828 6.1649 21.406 6.08635ZM12 4.09535L18.538 7.00035L12 9.90535L10.692 9.32435L5.463 7.00035L12 4.09535ZM13 19.4613V11.6503L20 8.53935V16.3513L13 19.4613Z" fill="#202124"/>
</svg>
