<svg width="20" height="20" viewBox="0 0 20 20" fill="none" xmlns="http://www.w3.org/2000/svg">
<path d="M15.534 1.36L14.309 0H4.662C3.966 0 3.697 0.516 3.697 0.919V4.549H5.05V1.653C5.05 1.499 5.18 1.369 5.33 1.369H12.233C12.385 1.369 12.461 1.396 12.461 1.521V6.341H17.374C17.567 6.341 17.642 6.441 17.642 6.587V18.357C17.642 18.603 17.542 18.64 17.392 18.64H5.33C5.25562 18.6382 5.18485 18.6076 5.13261 18.5546C5.08037 18.5016 5.05076 18.4304 5.05 18.356V17.28H3.706V18.975C3.688 19.575 4.008 20 4.662 20H18.06C18.76 20 18.999 19.493 18.999 19.031V5.187L18.649 4.807L15.534 1.36ZM13.836 1.52L14.223 1.954L16.819 4.807L16.962 4.98H14.309C14.109 4.98 13.9823 4.94667 13.929 4.88C13.8757 4.81467 13.8447 4.71033 13.836 4.567V1.52ZM12.746 10.667H17.323V12.001H12.745L12.746 10.667ZM12.746 8.001H17.323V9.334H12.745L12.746 8.001ZM12.746 13.334H17.323V14.668H12.745L12.746 13.334ZM1 5.626V16.293H11.465V5.626H1ZM6.233 11.83L5.593 12.808H6.233V14H3.016L5.35 10.49L3.282 7.334H5.01L6.234 9.17L7.457 7.334H9.184L7.112 10.49L9.449 14H7.656L6.233 11.83Z" fill="black"/>
</svg>
