<svg width="142" height="66" viewBox="0 0 142 66" fill="none" xmlns="http://www.w3.org/2000/svg">
<path d="M40.6334 33.1566C38.6168 33.1566 36.8096 32.8293 35.212 32.1745C33.6144 31.5197 32.3311 30.5507 31.362 29.2674C30.4191 27.984 29.9215 26.4388 29.8691 24.6316H37.0192C37.1239 25.6531 37.4775 26.4388 38.0799 26.9888C38.6823 27.5126 39.468 27.7745 40.437 27.7745C41.4323 27.7745 42.218 27.5519 42.7942 27.1066C43.3704 26.6352 43.6585 25.9935 43.6585 25.1816C43.6585 24.5007 43.4227 23.9376 42.9513 23.4923C42.5061 23.0471 41.943 22.6804 41.262 22.3923C40.6073 22.1042 39.6644 21.7769 38.4334 21.4102C36.6525 20.8602 35.1989 20.3102 34.0727 19.7602C32.9465 19.2102 31.9775 18.3983 31.1656 17.3245C30.3537 16.2507 29.9477 14.8495 29.9477 13.1209C29.9477 10.5542 30.8775 8.55064 32.737 7.11016C34.5965 5.64349 37.0192 4.91016 40.0049 4.91016C43.043 4.91016 45.4918 5.64349 47.3513 7.11016C49.2108 8.55064 50.2061 10.5673 50.337 13.1602H43.0692C43.0168 12.2697 42.6894 11.5756 42.087 11.078C41.4846 10.5542 40.712 10.2923 39.7692 10.2923C38.9573 10.2923 38.3025 10.5149 37.8049 10.9602C37.3073 11.3792 37.0584 11.9947 37.0584 12.8066C37.0584 13.6971 37.4775 14.3911 38.3156 14.8887C39.1537 15.3864 40.4632 15.9233 42.2442 16.4995C44.0251 17.1019 45.4656 17.678 46.5656 18.228C47.6918 18.778 48.6609 19.5769 49.4728 20.6245C50.2847 21.6721 50.6906 23.0209 50.6906 24.6709C50.6906 26.2423 50.2847 27.6697 49.4728 28.9531C48.687 30.2364 47.5347 31.2578 46.0156 32.0174C44.4966 32.7769 42.7025 33.1566 40.6334 33.1566Z" fill="#20599E"/>
<path d="M16.1222 10.6868V16.2654H25.1186V21.4512H16.1222V27.5012H26.2972V32.8833H9.4043V5.30469H26.2972V10.6868H16.1222Z" fill="#20599E"/>
<path d="M100.32 47.6333C101.194 47.6333 102.049 47.8925 102.776 48.3781C103.502 48.8637 104.069 49.554 104.403 50.3616C104.738 51.1692 104.825 52.0578 104.655 52.9151C104.484 53.7725 104.063 54.56 103.445 55.1781C102.827 55.7962 102.04 56.2171 101.182 56.3876C100.325 56.5582 99.4364 56.4707 98.6288 56.1361C97.8212 55.8016 97.131 55.2351 96.6453 54.5083C96.1597 53.7815 95.9005 52.927 95.9005 52.0529C95.9017 50.8811 96.3677 49.7577 97.1963 48.9291C98.0249 48.1005 99.1483 47.6345 100.32 47.6333ZM100.32 54.9993C100.903 54.9993 101.473 54.8265 101.957 54.5028C102.442 54.179 102.819 53.7189 103.042 53.1805C103.265 52.6421 103.324 52.0496 103.21 51.4781C103.096 50.9065 102.816 50.3815 102.404 49.9695C101.992 49.5574 101.467 49.2768 100.895 49.1631C100.323 49.0494 99.731 49.1078 99.1926 49.3308C98.6542 49.5538 98.194 49.9314 97.8703 50.416C97.5465 50.9005 97.3737 51.4702 97.3737 52.0529C97.3737 52.8344 97.6841 53.5838 98.2367 54.1364C98.7893 54.6889 99.5387 54.9993 100.32 54.9993ZM92.2174 52.2518C92.2138 52.1192 92.2138 51.9866 92.2174 51.854L90.8437 50.1377C90.7716 50.0476 90.7218 49.9418 90.6981 49.8289C90.6744 49.716 90.6776 49.5991 90.7074 49.4877C90.9326 48.6411 91.2695 47.8283 91.7092 47.0707C91.7668 46.9715 91.8467 46.8872 91.9426 46.8244C92.0385 46.7615 92.1477 46.722 92.2616 46.7088L94.4457 46.4657C94.5365 46.37 94.6286 46.2779 94.7219 46.1895L94.9797 43.9999C94.993 43.886 95.0327 43.7767 95.0957 43.6807C95.1587 43.5848 95.2432 43.5049 95.3425 43.4475C96.1004 43.0086 96.9132 42.672 97.7595 42.4466C97.871 42.417 97.988 42.4139 98.1009 42.4378C98.2138 42.4616 98.3195 42.5116 98.4096 42.5838L100.121 43.9502H100.519L102.235 42.5792C102.325 42.5072 102.431 42.4573 102.544 42.4336C102.657 42.41 102.774 42.4132 102.885 42.4429C103.732 42.6685 104.545 43.0054 105.302 43.4447C105.402 43.5023 105.486 43.5822 105.549 43.6781C105.612 43.774 105.651 43.8833 105.664 43.9972L105.907 46.1849C106.003 46.2764 106.095 46.3684 106.184 46.4611L108.373 46.7125C108.487 46.7258 108.596 46.7655 108.692 46.8284C108.788 46.8914 108.868 46.976 108.926 47.0753C109.364 47.8332 109.701 48.6459 109.926 49.4923C109.956 49.6038 109.959 49.7207 109.935 49.8336C109.911 49.9466 109.861 50.0523 109.789 50.1423L108.423 51.854V52.2518L109.794 53.9681C109.866 54.0582 109.916 54.164 109.939 54.2769C109.963 54.3898 109.96 54.5067 109.93 54.6182C109.705 55.4647 109.368 56.2775 108.928 57.0351C108.871 57.1343 108.791 57.2186 108.695 57.2815C108.599 57.3443 108.49 57.3838 108.376 57.397L106.192 57.6401C106.1 57.7358 106.008 57.8279 105.916 57.9163L105.661 60.1059C105.647 60.2199 105.608 60.3292 105.545 60.4251C105.482 60.521 105.397 60.6009 105.298 60.6583C104.54 61.0972 103.727 61.4338 102.881 61.6592C102.769 61.6889 102.652 61.6919 102.539 61.6681C102.426 61.6442 102.321 61.5942 102.231 61.522L100.519 60.1556C100.386 60.1593 100.254 60.1593 100.121 60.1556L98.405 61.5294C98.3148 61.6014 98.2091 61.6513 98.0962 61.6749C97.9832 61.6986 97.8664 61.6954 97.7549 61.6657C96.9083 61.4405 96.0955 61.1036 95.3379 60.6639C95.2387 60.6063 95.1544 60.5264 95.0916 60.4305C95.0288 60.3346 94.9892 60.2253 94.976 60.1114L94.733 57.9274C94.6372 57.8365 94.5451 57.7444 94.4567 57.6511L92.2672 57.3933C92.1532 57.3801 92.0439 57.3404 91.948 57.2774C91.852 57.2144 91.7722 57.1299 91.7147 57.0305C91.2758 56.2726 90.9393 55.4599 90.7138 54.6135C90.6842 54.502 90.6812 54.3851 90.705 54.2722C90.7288 54.1593 90.7788 54.0535 90.851 53.9635L92.2174 52.2518ZM93.6999 51.6533C93.6842 51.9195 93.6842 52.1863 93.6999 52.4525C93.7108 52.6348 93.6537 52.8146 93.5397 52.9571L92.2331 54.5896C92.383 55.0661 92.575 55.5283 92.8067 55.9707L94.8876 56.2065C95.0689 56.2266 95.2362 56.3132 95.3572 56.4495C95.5345 56.6489 95.7232 56.8377 95.9226 57.0149C96.0589 57.1359 96.1455 57.3033 96.1657 57.4845L96.3968 59.5636C96.8392 59.7954 97.3014 59.9874 97.7779 60.1372L99.4113 58.8306C99.5421 58.7262 99.7044 58.6694 99.8717 58.6695H99.9159C100.182 58.6851 100.449 58.6851 100.715 58.6695C100.897 58.6585 101.077 58.7156 101.22 58.8297L102.857 60.1372C103.333 59.9873 103.795 59.7953 104.238 59.5636L104.474 57.4854C104.494 57.3042 104.58 57.1369 104.717 57.0158C104.916 56.8386 105.105 56.6498 105.282 56.4505C105.403 56.3141 105.57 56.2275 105.752 56.2074L107.831 55.9754C108.063 55.5329 108.255 55.0707 108.404 54.5942L107.098 52.9608C106.984 52.8183 106.927 52.6384 106.938 52.4562C106.953 52.19 106.953 51.9232 106.938 51.657C106.927 51.4747 106.984 51.2949 107.098 51.1524L108.404 49.5162C108.254 49.0398 108.063 48.5776 107.831 48.1351L105.753 47.8994C105.571 47.8792 105.404 47.7926 105.283 47.6563C105.106 47.4569 104.917 47.2682 104.718 47.0909C104.581 46.9698 104.494 46.8021 104.474 46.6204L104.243 44.5423C103.8 44.3104 103.338 44.1184 102.861 43.9686L101.228 45.2752C101.085 45.3893 100.906 45.4464 100.723 45.4354C100.457 45.4198 100.19 45.4198 99.9242 45.4354C99.742 45.4464 99.5622 45.3893 99.4196 45.2752L97.7834 43.9686C97.307 44.1186 96.8448 44.3105 96.4023 44.5423L96.1666 46.6204C96.1465 46.8016 96.0599 46.969 95.9235 47.09C95.7241 47.2672 95.5354 47.456 95.3582 47.6554C95.2371 47.7917 95.0698 47.8783 94.8886 47.8984L92.8095 48.1295C92.5776 48.572 92.3857 49.0342 92.2359 49.5107L93.5424 51.1441C93.6576 51.2878 93.7148 51.4695 93.7026 51.6533H93.6999Z" fill="#20599E"/>
<path d="M133.062 65.8052L123.79 53.6266V65.8052H117.072V38.2266H123.79V50.3266L132.983 38.2266H140.879L130.194 51.7409L141.272 65.8052H133.062Z" fill="#20599E"/>
<path d="M86.0059 51.9745C86.0059 49.2507 86.5951 46.828 87.7737 44.7066C88.9523 42.559 90.5892 40.8959 92.6844 39.7173C94.8059 38.5125 97.2023 37.9102 99.8738 37.9102C103.148 37.9102 105.95 38.7744 108.281 40.503C110.612 42.2316 112.17 44.5887 112.956 47.5745H105.57C105.02 46.4221 104.234 45.5447 103.213 44.9423C102.218 44.3399 101.079 44.0387 99.7952 44.0387C97.7261 44.0387 96.0499 44.759 94.7666 46.1995C93.4833 47.6399 92.8416 49.5649 92.8416 51.9745C92.8416 54.384 93.4833 56.309 94.7666 57.7495C96.0499 59.19 97.7261 59.9102 99.7952 59.9102C101.079 59.9102 102.218 59.609 103.213 59.0066C104.234 58.4043 105.02 57.5269 105.57 56.3745H112.956C112.17 59.3602 110.612 61.7174 108.281 63.4459C105.95 65.1483 103.148 65.9995 99.8738 65.9995C97.2023 65.9995 94.8059 65.4102 92.6844 64.2316C90.5892 63.0269 88.9523 61.3638 87.7737 59.2423C86.5951 57.1209 86.0059 54.6983 86.0059 51.9745Z" fill="#20599E"/>
<path d="M75.35 60.9338H65.0572L63.4072 65.8052H56.375L66.3536 38.2266H74.1322L84.1108 65.8052H77L75.35 60.9338ZM73.6215 55.748L70.2036 45.6516L66.825 55.748H73.6215Z" fill="#20599E"/>
<g clip-path="url(#clip0_1396_2052)">
<path fill-rule="evenodd" clip-rule="evenodd" d="M57.3571 14.5486C56.7215 13.9111 56.244 13.1336 55.963 12.2784C55.682 11.4232 55.6052 10.5141 55.7388 9.62388C55.8724 8.73366 56.2127 7.88711 56.7324 7.15207C57.252 6.41703 57.9367 5.81394 58.7314 5.39113C58.8569 5.32425 58.9977 5.29103 59.1399 5.29472C59.2821 5.29841 59.4209 5.33888 59.5428 5.41219C59.6647 5.4855 59.7655 5.58914 59.8355 5.71302C59.9054 5.83689 59.9421 5.97678 59.9418 6.11903L59.9321 11.2726C60.3635 11.6052 60.8927 11.7859 61.4375 11.7866C61.9822 11.7873 62.5118 11.6078 62.944 11.2763L62.9522 6.12425C62.9524 5.98199 62.9896 5.84224 63.0599 5.7186C63.1303 5.59497 63.2315 5.49168 63.3537 5.41879C63.4758 5.3459 63.6148 5.30591 63.757 5.30272C63.8992 5.29952 64.0398 5.33323 64.1652 5.40055C64.995 5.84572 65.7032 6.48748 66.2277 7.26967C66.7521 8.05185 67.0769 8.95065 67.1736 9.88741C67.2704 10.8242 67.1361 11.7704 66.7825 12.6432C66.4289 13.5161 65.8668 14.289 65.1454 14.8943C64.2872 15.6163 63.7688 16.4212 63.8412 17.1766L65.0115 29.4707C65.058 29.9726 64.9991 30.4787 64.8387 30.9566C64.6783 31.4345 64.4199 31.8737 64.0799 32.2459C63.74 32.6182 63.3261 32.9153 62.8647 33.1184C62.4033 33.3214 61.9046 33.4259 61.4005 33.425C60.8964 33.4242 60.3981 33.3181 59.9373 33.1136C59.4766 32.9091 59.0636 32.6106 58.7249 32.2372C58.3862 31.8639 58.1292 31.4239 57.9704 30.9455C57.8115 30.4671 57.7543 29.9608 57.8024 29.459L59.0137 17.169C59.0872 16.4138 58.5732 15.6072 57.7174 14.8822C57.5924 14.7765 57.4721 14.6651 57.3571 14.5486ZM60.8167 30.28C60.6626 30.1254 60.5762 29.9158 60.5766 29.6974C60.577 29.4791 60.6641 29.2698 60.8188 29.1156L60.825 29.1094C60.9797 28.9553 61.1892 28.8689 61.4076 28.8693C61.626 28.8697 61.8352 28.9568 61.9894 29.1115L61.9956 29.1177C62.1497 29.2724 62.2361 29.4819 62.2357 29.7003C62.2353 29.9187 62.1482 30.1279 61.9936 30.2821L61.9873 30.2883C61.8327 30.4424 61.6231 30.5288 61.4047 30.5284C61.1864 30.528 60.9771 30.4409 60.8229 30.2863L60.8167 30.28Z" fill="#20599E"/>
</g>
<path fill-rule="evenodd" clip-rule="evenodd" d="M8.83845 37.5781C8.44773 37.5781 8.07301 37.7333 7.79673 38.0096C7.52045 38.2859 7.36523 38.6606 7.36523 39.0513V44.9442C7.36523 45.3349 7.52045 45.7097 7.79673 45.9859C8.07301 46.2622 8.44773 46.4174 8.83845 46.4174H14.7313V64.096C14.7313 64.4868 14.8865 64.8615 15.1628 65.1378C15.4391 65.4141 15.8138 65.5693 16.2045 65.5693H20.6242C21.0149 65.5693 21.3896 65.4141 21.6659 65.1378C21.9422 64.8615 22.0974 64.4868 22.0974 64.096V46.4174H27.9903C28.381 46.4174 28.7557 46.2622 29.032 45.9859C29.3083 45.7097 29.4635 45.3349 29.4635 44.9442V43.471C29.4634 43.0803 29.3081 42.7056 29.0318 42.4294L28.0639 41.4615C26.8327 40.2303 25.3711 39.2537 23.7624 38.5874C22.1537 37.9211 20.4296 37.5781 18.6884 37.5781H8.83845Z" fill="#20599E"/>
<path d="M47.2077 65.4302L41.2972 54.7643H39.6374V65.4302H32.7148V37.1758H44.3334C46.5735 37.1758 48.4762 37.5649 50.0415 38.343C51.6339 39.1211 52.8214 40.1944 53.604 41.5629C54.3867 42.9045 54.778 44.4071 54.778 46.0707C54.778 47.9489 54.2383 49.626 53.1587 51.1017C52.1062 52.5775 50.5408 53.624 48.4627 54.2411L55.0209 65.4302H47.2077ZM39.6374 49.8943H43.9286C45.1971 49.8943 46.1417 49.5857 46.7624 48.9686C47.4101 48.3514 47.734 47.4794 47.734 46.3524C47.734 45.2791 47.4101 44.4339 46.7624 43.8168C46.1417 43.1996 45.1971 42.8911 43.9286 42.8911H39.6374V49.8943Z" fill="#20599E"/>
<defs>
<clipPath id="clip0_1396_2052">
<rect width="26.347" height="26.347" fill="white" transform="translate(42.7949 18.5977) rotate(-44.9007)"/>
</clipPath>
</defs>
</svg>
