<svg width="95" height="45" viewBox="0 0 95 45" fill="none" xmlns="http://www.w3.org/2000/svg">
<path d="M27.325 22.7974C25.9689 22.7974 24.7536 22.5773 23.6793 22.137C22.605 21.6967 21.742 21.045 21.0903 20.182C20.4563 19.319 20.1217 18.2799 20.0864 17.0647H24.8945C24.965 17.7515 25.2028 18.2799 25.6078 18.6498C26.0129 19.002 26.5413 19.1781 27.1929 19.1781C27.8622 19.1781 28.3905 19.0284 28.778 18.729C29.1655 18.412 29.3592 17.9805 29.3592 17.4345C29.3592 16.9766 29.2007 16.598 28.8837 16.2985C28.5843 15.9991 28.2056 15.7526 27.7477 15.5588C27.3074 15.3651 26.6734 15.145 25.8456 14.8984C24.648 14.5285 23.6705 14.1587 22.9132 13.7888C22.1559 13.419 21.5042 12.873 20.9582 12.1509C20.4123 11.4288 20.1393 10.4865 20.1393 9.32414C20.1393 7.59815 20.7645 6.25082 22.015 5.28215C23.2654 4.29587 24.8945 3.80273 26.9023 3.80273C28.9453 3.80273 30.5921 4.29587 31.8425 5.28215C33.093 6.25082 33.7623 7.60696 33.8503 9.35056H28.9629C28.9277 8.75175 28.7076 8.28502 28.3025 7.95039C27.8974 7.59815 27.3779 7.42203 26.7438 7.42203C26.1978 7.42203 25.7575 7.57173 25.4229 7.87114C25.0883 8.15293 24.921 8.56682 24.921 9.11279C24.921 9.71161 25.2028 10.1783 25.7663 10.513C26.3299 10.8476 27.2105 11.2086 28.4082 11.5961C29.6058 12.0012 30.5745 12.3887 31.3142 12.7585C32.0715 13.1284 32.7231 13.6655 33.2691 14.37C33.8151 15.0745 34.0881 15.9815 34.0881 17.0911C34.0881 18.1478 33.8151 19.1077 33.2691 19.9707C32.7407 20.8337 31.9658 21.5205 30.9443 22.0313C29.9228 22.542 28.7164 22.7974 27.325 22.7974Z" fill="#F4F4F4"/>
<path d="M10.8398 7.6857V11.4371H16.8895V14.9243H10.8398V18.9927H17.6821V22.612H6.32227V4.06641H17.6821V7.6857H10.8398Z" fill="#F4F4F4"/>
<path d="M67.4628 32.5325C68.0506 32.5325 68.6252 32.7068 69.1139 33.0334C69.6027 33.3599 69.9836 33.8241 70.2086 34.3672C70.4335 34.9102 70.4924 35.5078 70.3777 36.0843C70.263 36.6609 69.98 37.1904 69.5643 37.6061C69.1487 38.0217 68.6191 38.3048 68.0426 38.4195C67.4661 38.5341 66.8685 38.4753 66.3254 38.2503C65.7823 38.0254 65.3182 37.6445 64.9916 37.1557C64.665 36.667 64.4907 36.0923 64.4907 35.5045C64.4915 34.7165 64.8049 33.9611 65.3621 33.4039C65.9193 32.8467 66.6748 32.5333 67.4628 32.5325ZM67.4628 37.4859C67.8546 37.4859 68.2377 37.3697 68.5635 37.152C68.8894 36.9343 69.1433 36.6248 69.2933 36.2628C69.4433 35.9007 69.4825 35.5023 69.4061 35.118C69.3296 34.7336 69.1409 34.3806 68.8638 34.1035C68.5867 33.8264 68.2337 33.6377 67.8493 33.5612C67.465 33.4848 67.0666 33.524 66.7045 33.674C66.3425 33.8239 66.033 34.0779 65.8153 34.4037C65.5976 34.7296 65.4814 35.1126 65.4814 35.5045C65.4814 36.03 65.6901 36.534 66.0617 36.9056C66.4333 37.2771 66.9373 37.4859 67.4628 37.4859ZM62.014 35.6383C62.0115 35.5491 62.0115 35.4599 62.014 35.3708L61.0902 34.2166C61.0418 34.156 61.0082 34.0849 60.9923 34.009C60.9764 33.9331 60.9785 33.8544 60.9986 33.7795C61.15 33.2102 61.3765 32.6636 61.6722 32.1542C61.7109 32.0875 61.7647 32.0308 61.8292 31.9885C61.8937 31.9463 61.9671 31.9197 62.0437 31.9108L63.5124 31.7474C63.5735 31.683 63.6354 31.621 63.6982 31.5616L63.8715 30.0892C63.8805 30.0126 63.9072 29.9391 63.9495 29.8746C63.9919 29.8101 64.0487 29.7563 64.1155 29.7177C64.6252 29.4226 65.1717 29.1962 65.7408 29.0447C65.8158 29.0247 65.8945 29.0227 65.9704 29.0387C66.0463 29.0547 66.1174 29.0884 66.178 29.1369L67.329 30.0558H67.5965L68.7506 29.1338C68.8112 29.0854 68.8824 29.0518 68.9583 29.0359C69.0342 29.02 69.1128 29.0222 69.1878 29.0422C69.757 29.1939 70.3035 29.4204 70.8131 29.7158C70.8798 29.7546 70.9365 29.8083 70.9788 29.8728C71.021 29.9373 71.0476 30.0108 71.0565 30.0873L71.2199 31.5585C71.2843 31.62 71.3462 31.6819 71.4057 31.7443L72.8781 31.9133C72.9547 31.9222 73.0282 31.9489 73.0927 31.9913C73.1572 32.0336 73.2109 32.0905 73.2496 32.1573C73.5447 32.6669 73.771 33.2135 73.9226 33.7826C73.9426 33.8576 73.9446 33.9362 73.9286 34.0122C73.9126 34.0881 73.8789 34.1592 73.8304 34.2197L72.9115 35.3708V35.6383L73.8335 36.7924C73.8819 36.853 73.9154 36.9241 73.9314 37.0001C73.9473 37.076 73.9451 37.1546 73.9251 37.2296C73.7737 37.7988 73.5471 38.3454 73.2514 38.8549C73.2127 38.9216 73.159 38.9783 73.0945 39.0205C73.03 39.0628 72.9565 39.0894 72.8799 39.0982L71.4113 39.2617C71.3497 39.3261 71.2878 39.388 71.2255 39.4474L71.054 40.9198C71.0451 40.9965 71.0184 41.07 70.976 41.1345C70.9337 41.199 70.8768 41.2527 70.81 41.2914C70.3004 41.5865 69.7538 41.8128 69.1847 41.9644C69.1097 41.9843 69.0311 41.9864 68.9551 41.9703C68.8792 41.9543 68.8081 41.9207 68.7476 41.8721L67.5965 40.9533C67.5073 40.9558 67.4182 40.9558 67.329 40.9533L66.1749 41.8771C66.1143 41.9255 66.0431 41.9591 65.9672 41.975C65.8913 41.9909 65.8127 41.9888 65.7377 41.9687C65.1685 41.8173 64.6219 41.5907 64.1124 41.2951C64.0457 41.2564 63.989 41.2026 63.9468 41.1381C63.9045 41.0736 63.8779 41.0001 63.8691 40.9236L63.7056 39.4549C63.6412 39.3938 63.5793 39.3319 63.5198 39.2691L62.0474 39.0957C61.9708 39.0868 61.8973 39.0601 61.8328 39.0178C61.7683 38.9754 61.7146 38.9186 61.6759 38.8518C61.3808 38.3421 61.1545 37.7956 61.0029 37.2265C60.983 37.1515 60.9809 37.0728 60.9969 36.9969C61.013 36.921 61.0466 36.8499 61.0951 36.7893L62.014 35.6383ZM63.0109 35.2358C63.0004 35.4148 63.0004 35.5943 63.0109 35.7732C63.0183 35.8958 62.9799 36.0167 62.9031 36.1126L62.0245 37.2104C62.1254 37.5308 62.2544 37.8416 62.4103 38.1391L63.8096 38.2976C63.9315 38.3112 64.044 38.3694 64.1254 38.4611C64.2446 38.5951 64.3715 38.7221 64.5056 38.8413C64.5973 38.9227 64.6555 39.0352 64.669 39.157L64.8244 40.5551C65.122 40.7111 65.4328 40.8402 65.7532 40.9409L66.8516 40.0623C66.9395 39.9921 67.0487 39.9538 67.1612 39.9539H67.1909C67.3699 39.9644 67.5494 39.9644 67.7284 39.9539C67.8509 39.9466 67.9719 39.9849 68.0677 40.0617L69.1686 40.9409C69.489 40.8401 69.7998 40.711 70.0974 40.5551L70.2559 39.1577C70.2694 39.0358 70.3276 38.9233 70.4193 38.8419C70.5534 38.7227 70.6803 38.5958 70.7995 38.4617C70.8809 38.37 70.9934 38.3118 71.1153 38.2982L72.5134 38.1422C72.6693 37.8447 72.7984 37.5339 72.8991 37.2135L72.0205 36.115C71.9438 36.0192 71.9054 35.8983 71.9128 35.7757C71.9233 35.5967 71.9233 35.4173 71.9128 35.2383C71.9054 35.1157 71.9438 34.9948 72.0205 34.899L72.8991 33.7987C72.7983 33.4783 72.6692 33.1675 72.5134 32.8699L71.1159 32.7114C70.994 32.6979 70.8815 32.6396 70.8001 32.548C70.681 32.4139 70.554 32.287 70.42 32.1678C70.3279 32.0863 70.2694 31.9736 70.2559 31.8514L70.1005 30.4539C69.8029 30.298 69.4921 30.1689 69.1717 30.0682L68.0733 30.9468C67.9774 31.0235 67.8565 31.0619 67.734 31.0545C67.555 31.044 67.3755 31.044 67.1965 31.0545C67.074 31.0619 66.9531 31.0235 66.8572 30.9468L65.7569 30.0682C65.4365 30.169 65.1257 30.2981 64.8282 30.4539L64.6697 31.8514C64.6561 31.9732 64.5979 32.0858 64.5062 32.1672C64.3721 32.2863 64.2452 32.4133 64.126 32.5473C64.0446 32.639 63.9321 32.6973 63.8102 32.7108L62.4121 32.8662C62.2562 33.1637 62.1271 33.4745 62.0264 33.795L62.905 34.8934C62.9825 34.99 63.0209 35.1122 63.0127 35.2358H63.0109Z" fill="#F4F4F4"/>
<path d="M89.4788 44.7507L83.2441 36.561V44.7507H78.7266V26.2051H83.2441V34.3419L89.4259 26.2051H94.736L87.5502 35.2929L95.0002 44.7507H89.4788Z" fill="#F4F4F4"/>
<path d="M57.8369 35.4519C57.8369 33.6202 58.2332 31.9911 59.0257 30.5645C59.8183 29.1203 60.919 28.0019 62.328 27.2094C63.7546 26.3992 65.3661 25.9941 67.1625 25.9941C69.3641 25.9941 71.2486 26.5753 72.816 27.7377C74.3835 28.9001 75.4314 30.4852 75.9598 32.493H70.9932C70.6233 31.7181 70.095 31.1281 69.4081 30.723C68.7388 30.3179 67.9727 30.1154 67.1097 30.1154C65.7183 30.1154 64.5912 30.5997 63.7282 31.5684C62.8652 32.5371 62.4337 33.8315 62.4337 35.4519C62.4337 37.0722 62.8652 38.3667 63.7282 39.3353C64.5912 40.304 65.7183 40.7883 67.1097 40.7883C67.9727 40.7883 68.7388 40.5858 69.4081 40.1807C70.095 39.7756 70.6233 39.1856 70.9932 38.4107H75.9598C75.4314 40.4185 74.3835 42.0036 72.816 43.166C71.2486 44.3108 69.3641 44.8832 67.1625 44.8832C65.3661 44.8832 63.7546 44.4869 62.328 43.6943C60.919 42.8842 59.8183 41.7658 59.0257 40.3392C58.2332 38.9126 57.8369 37.2835 57.8369 35.4519Z" fill="#F4F4F4"/>
<path d="M50.6697 41.4748H43.7481L42.6385 44.7507H37.9097L44.6199 26.2051H49.8507L56.5609 44.7507H51.7792L50.6697 41.4748ZM49.5073 37.9876L47.2089 31.1981L44.9369 37.9876H49.5073Z" fill="#F4F4F4"/>
<g clip-path="url(#clip0_1887_1525)">
<path fill-rule="evenodd" clip-rule="evenodd" d="M38.57 10.283C38.1426 9.85435 37.8215 9.33152 37.6325 8.75643C37.4436 8.18134 37.3919 7.56998 37.4818 6.97134C37.5716 6.3727 37.8004 5.80342 38.1499 5.30914C38.4994 4.81485 38.9597 4.4093 39.4942 4.12497C39.5786 4.08 39.6732 4.05766 39.7689 4.06014C39.8645 4.06262 39.9578 4.08984 40.0398 4.13913C40.1218 4.18843 40.1896 4.25813 40.2366 4.34143C40.2837 4.42473 40.3083 4.5188 40.3082 4.61446L40.3016 8.08003C40.5917 8.30372 40.9476 8.42524 41.3139 8.42568C41.6802 8.42613 42.0364 8.30547 42.327 8.0825L42.3325 4.61797C42.3327 4.52231 42.3576 4.42833 42.405 4.34519C42.4523 4.26205 42.5203 4.19259 42.6025 4.14357C42.6846 4.09456 42.7781 4.06767 42.8737 4.06552C42.9693 4.06337 43.0639 4.08603 43.1482 4.13131C43.7062 4.43067 44.1824 4.86222 44.5351 5.38822C44.8878 5.91421 45.1062 6.51861 45.1713 7.14855C45.2363 7.77849 45.146 8.41477 44.9082 9.00173C44.6705 9.58868 44.2925 10.1084 43.8074 10.5155C43.2302 11.001 42.8816 11.5423 42.9304 12.0503L43.7173 20.3176C43.7486 20.6551 43.709 20.9954 43.6011 21.3168C43.4932 21.6382 43.3195 21.9335 43.0909 22.1838C42.8623 22.4341 42.5839 22.6339 42.2737 22.7705C41.9634 22.907 41.628 22.9773 41.2891 22.9767C40.9501 22.9762 40.6149 22.9048 40.3051 22.7673C39.9953 22.6297 39.7176 22.429 39.4898 22.1779C39.2621 21.9269 39.0892 21.631 38.9824 21.3093C38.8756 20.9876 38.8371 20.6471 38.8695 20.3097L39.684 12.0451C39.7334 11.5373 39.3878 10.9949 38.8123 10.5074C38.7282 10.4362 38.6474 10.3614 38.57 10.283ZM40.8965 20.8618C40.7928 20.7578 40.7348 20.6169 40.735 20.47C40.7353 20.3232 40.7938 20.1825 40.8979 20.0788L40.902 20.0746C41.006 19.971 41.147 19.9129 41.2938 19.9132C41.4407 19.9134 41.5814 19.972 41.685 20.076L41.6892 20.0802C41.7929 20.1842 41.8509 20.3251 41.8507 20.472C41.8504 20.6188 41.7919 20.7595 41.6878 20.8632L41.6837 20.8674C41.5797 20.971 41.4387 21.0291 41.2919 21.0288C41.145 21.0286 41.0043 20.97 40.9007 20.866L40.8965 20.8618Z" fill="#F4F4F4"/>
</g>
<path fill-rule="evenodd" clip-rule="evenodd" d="M5.94381 25.7695C5.68106 25.7695 5.42908 25.8739 5.24329 26.0597C5.0575 26.2455 4.95312 26.4975 4.95312 26.7602V30.7229C4.95312 30.9857 5.0575 31.2377 5.24329 31.4235C5.42908 31.6093 5.68106 31.7136 5.94381 31.7136H9.90654V43.6018C9.90654 43.8646 10.0109 44.1166 10.1967 44.3023C10.3825 44.4881 10.6345 44.5925 10.8972 44.5925H13.8693C14.132 44.5925 14.384 44.4881 14.5698 44.3023C14.7556 44.1166 14.86 43.8646 14.86 43.6018V31.7136H18.8227C19.0854 31.7136 19.3374 31.6093 19.5232 31.4235C19.709 31.2377 19.8134 30.9857 19.8134 30.7229V29.7323C19.8133 29.4695 19.7089 29.2176 19.5231 29.0319L18.8722 28.381C18.0443 27.553 17.0614 26.8963 15.9796 26.4482C14.8978 26.0001 13.7384 25.7695 12.5675 25.7695H5.94381Z" fill="#F4F4F4"/>
<path d="M30.9704 44.1432L27.1134 37.1424H26.0302V44.1432H21.5127V25.5977H29.0947C30.5565 25.5977 31.7982 25.853 32.8197 26.3638C33.8588 26.8745 34.6337 27.579 35.1445 28.4772C35.6552 29.3578 35.9106 30.3441 35.9106 31.4361C35.9106 32.6689 35.5584 33.7697 34.8539 34.7384C34.167 35.707 33.1455 36.3939 31.7894 36.799L36.0691 44.1432H30.9704ZM26.0302 33.9458H28.8305C29.6583 33.9458 30.2747 33.7433 30.6798 33.3382C31.1025 32.9331 31.3139 32.3607 31.3139 31.621C31.3139 30.9165 31.1025 30.3617 30.6798 29.9567C30.2747 29.5516 29.6583 29.349 28.8305 29.349H26.0302V33.9458Z" fill="#F4F4F4"/>
<defs>
<clipPath id="clip0_1887_1525">
<rect width="17.7174" height="17.7174" fill="white" transform="translate(28.7778 13.0059) rotate(-44.9007)"/>
</clipPath>
</defs>
</svg>
