<svg width="44" height="45" viewBox="0 0 44 45" fill="none" xmlns="http://www.w3.org/2000/svg">
<rect opacity="0.8" x="0.5" y="1" width="43" height="43" rx="21.5" fill="white" stroke="#C3D4E9"/>
<path d="M22.0206 13.4102C18.7106 13.4102 16.0206 16.1002 16.0206 19.4102V22.3002C16.0206 22.9102 15.7606 23.8402 15.4506 24.3602L14.3006 26.2702C13.5906 27.4502 14.0806 28.7602 15.3806 29.2002C19.6906 30.6402 24.3406 30.6402 28.6506 29.2002C29.8606 28.8002 30.3906 27.3702 29.7306 26.2702L28.5806 24.3602C28.2806 23.8402 28.0206 22.9102 28.0206 22.3002V19.4102C28.0206 16.1102 25.3206 13.4102 22.0206 13.4102Z" stroke="#202124" stroke-width="1.5" stroke-miterlimit="10" stroke-linecap="round"/>
<path d="M23.8699 13.6995C23.5599 13.6095 23.2399 13.5395 22.9099 13.4995C21.9499 13.3795 21.0299 13.4495 20.1699 13.6995C20.4599 12.9595 21.1799 12.4395 22.0199 12.4395C22.8599 12.4395 23.5799 12.9595 23.8699 13.6995Z" stroke="#202124" stroke-width="1.5" stroke-miterlimit="10" stroke-linecap="round" stroke-linejoin="round"/>
<path d="M25.0195 29.5605C25.0195 31.2105 23.6695 32.5605 22.0195 32.5605C21.1995 32.5605 20.4395 32.2205 19.8995 31.6805C19.3595 31.1405 19.0195 30.3805 19.0195 29.5605" stroke="#202124" stroke-width="1.5" stroke-miterlimit="10"/>
</svg>
