<svg width="42" height="42" viewBox="0 0 42 42" fill="none" xmlns="http://www.w3.org/2000/svg">
<path fill-rule="evenodd" clip-rule="evenodd" d="M21 0C9.4017 0 0 9.4017 0 21C0 32.5983 9.4017 42 21 42C32.5983 42 42 32.5983 42 21C42 9.4017 32.5983 0 21 0ZM13.65 15.75C13.65 14.7848 13.8401 13.829 14.2095 12.9373C14.5789 12.0455 15.1203 11.2353 15.8028 10.5528C16.4853 9.87025 17.2955 9.32886 18.1873 8.95949C19.079 8.59011 20.0348 8.4 21 8.4C21.9652 8.4 22.921 8.59011 23.8127 8.95949C24.7045 9.32886 25.5147 9.87025 26.1972 10.5528C26.8797 11.2353 27.4211 12.0455 27.7905 12.9373C28.1599 13.829 28.35 14.7848 28.35 15.75C28.35 17.6993 27.5756 19.5688 26.1972 20.9472C24.8188 22.3256 22.9493 23.1 21 23.1C19.0507 23.1 17.1812 22.3256 15.8028 20.9472C14.4244 19.5688 13.65 17.6993 13.65 15.75ZM34.1418 31.4664C32.5693 33.4432 30.5708 35.0395 28.2952 36.1362C26.0197 37.2328 23.526 37.8016 21 37.8C18.474 37.8016 15.9803 37.2328 13.7047 36.1362C11.4292 35.0395 9.4307 33.4432 7.8582 31.4664C11.2623 29.0241 15.9075 27.3 21 27.3C26.0925 27.3 30.7377 29.0241 34.1418 31.4664Z" fill="#20599E"/>
</svg>
